<?xml version="1.0" encoding="UTF-8" standalone="no"?>
<!DOCTYPE svg PUBLIC "-//W3C//DTD SVG 1.1//EN" "http://www.w3.org/Graphics/SVG/1.1/DTD/svg11.dtd">
<svg width="512.00" height="512.00" viewBox="0.00 0.00 512.00 512.00" xmlns="http://www.w3.org/2000/svg" xmlns:xlink="http://www.w3.org/1999/xlink">
<g stroke-linecap="round" id="レイヤー_10">
<path d="M124.58,265.87 C122.68,264.73 120.04,263.25 119.06,262.89 C117.97,262.50 114.92,263.80 109.64,265.85 C106.30,267.14 102.16,270.16 100.61,272.83 C99.12,275.61 96.05,281.06 95.24,281.71 C94.87,282.00 89.23,285.28 86.25,287.86 C82.78,290.92 54.48,327.62 52.08,331.76 C49.67,335.87 47.22,339.73 46.30,340.67 C44.54,342.44 31.64,379.70 57.97,389.37 C64.25,391.68 77.27,389.30 82.96,398.14 C88.55,406.84 94.95,409.19 100.70,410.65 C110.45,412.62 215.67,388.72 217.25,388.59 C217.46,392.17 230.87,400.53 231.29,390.16 C231.69,377.71 231.59,370.88 230.98,362.15 C230.19,352.86 228.37,350.53 227.35,349.86 C225.36,350.81 222.75,354.79 221.90,356.50 C218.57,363.28 207.87,394.23 203.99,405.90 C203.63,405.52 204.09,390.50 204.30,382.75 C204.56,365.37 202.31,352.42 201.11,349.71 C201.11,349.71 198.70,348.76 198.70,348.76 C196.27,351.04 193.38,360.03 191.58,367.51 C190.49,372.34 184.02,410.09 183.64,410.33 C183.03,407.66 180.15,390.81 178.66,383.03 C177.21,376.38 174.42,363.73 172.41,358.46 C171.27,359.63 170.56,364.70 170.20,367.36 C169.74,371.29 167.48,395.89 167.06,398.84 C166.71,401.25 165.83,405.30 165.44,406.93 C164.72,401.94 160.91,357.21 159.61,354.85 C159.40,354.48 158.88,353.92 158.06,353.18 C155.87,356.78 154.69,361.52 154.04,365.00 C151.99,376.42 149.97,405.41 149.68,406.28 C149.13,405.55 143.18,390.97 140.14,389.06 C139.32,388.58 137.85,388.15 136.95,388.10 C135.54,388.08 129.58,391.57 128.25,391.80 C126.46,392.08 90.95,387.81 86.92,386.86 C81.95,385.65 65.58,379.98 62.74,377.58 C60.49,375.62 58.23,371.11 57.51,368.62 C55.78,362.31 56.36,357.75 56.63,357.35 C57.19,356.58 75.41,362.90 83.32,365.66 C85.63,366.44 91.27,367.72 94.98,368.07 C99.51,368.47 113.17,366.63 115.72,365.88 C120.50,364.46 128.24,360.61 131.36,358.02 C134.27,355.57 137.30,352.16 138.34,350.64 C139.69,348.63 141.59,343.96 142.26,341.00 C143.53,335.15 143.80,322.20 143.28,316.99 C142.70,311.43 139.15,297.70 136.07,292.59 C134.53,290.11 130.79,287.41 128.64,287.16 C126.50,286.96 121.93,288.56 119.38,290.55 C116.14,293.11 110.33,300.59 107.00,306.66 C103.83,312.48 98.78,325.89 97.43,330.81 C97.20,331.70 95.94,337.82 95.82,340.40 C95.79,341.80 96.77,344.85 97.82,345.78 C98.87,346.67 102.02,347.20 103.20,346.94 C105.82,346.22 109.68,343.11 112.47,339.15 C114.45,336.27 119.73,323.40 122.18,315.35 C123.57,310.61 127.37,295.46 128.24,289.55 C128.63,286.86 129.10,280.12 128.90,276.62 C128.68,273.19 126.68,265.20 125.43,262.94 C124.69,261.67 122.97,259.77 121.98,259.16 C120.95,258.57 118.56,258.08 117.24,258.19 C114.59,258.48 109.50,261.09 106.44,263.18 C103.52,265.23 97.31,271.57 94.78,275.27 C92.26,279.00 88.14,287.61 86.41,292.83 C84.75,297.91 82.68,307.81 82.59,311.05 C82.53,314.31 83.12,319.12 84.09,321.53 C85.19,324.09 86.49,325.24 88.15,326.32 C89.58,325.82 90.33,325.14 90.85,323.64 C93.29,316.36 95.44,290.32 95.40,284.89 C95.37,281.70 94.71,274.68 93.38,272.72 C93.10,272.33 92.57,271.96 91.78,271.60 C90.66,271.84 89.66,272.88 88.97,274.75 C88.76,275.32 87.44,281.01 87.37,283.86 C87.35,284.99 87.63,294.76 87.74,298.15" fill="none" stroke="rgb(255, 252, 239)" stroke-width="60.00" stroke-opacity="1.00" stroke-linejoin="round"/>
<path d="M236.08,131.25 C233.61,148.86 186.87,137.11 188.01,137.21 C191.58,137.52 199.35,139.44 202.97,140.85 C210.56,144.05 225.54,149.84 228.92,151.46 C231.54,152.74 244.69,159.54 251.21,162.90 C261.45,168.28 268.50,171.50 273.95,172.65 C276.80,173.23 282.38,173.05 286.27,172.42 C293.09,171.29 307.52,165.84 310.65,164.86 C320.68,161.80 335.18,156.91 336.08,156.57 C337.03,156.21 337.80,155.42 338.21,154.78 C337.70,153.60 333.61,151.57 329.86,150.30 C324.97,148.65 310.50,145.41 303.39,144.10 C296.40,142.94 283.60,141.26 277.07,140.46 C267.90,139.41 261.76,138.91 252.08,139.23 C249.51,139.32 246.72,139.49 244.92,139.72 C242.85,139.98 241.35,140.53 239.95,141.45 C239.54,141.73 239.02,142.08 238.36,142.50" fill="none" stroke="rgb(255, 252, 239)" stroke-width="60.00" stroke-opacity="1.00" stroke-linejoin="round"/>
<path d="M241.50,386.12 C242.46,385.74 248.89,382.44 249.87,381.99 C253.32,380.44 267.11,377.67 270.93,377.42 C274.01,377.24 280.34,377.26 283.57,377.75 C286.48,378.22 293.63,380.38 296.41,381.59 C299.42,382.91 306.46,386.80 309.07,388.64 C311.49,390.36 378.06,361.91 382.35,365.96 C385.62,369.06 403.31,358.07 403.66,349.54 C403.93,342.79 402.88,331.36 400.79,325.41 C398.99,320.36 391.16,304.48 389.40,300.53 C383.71,287.25 375.11,267.51 374.03,266.16 C372.97,264.89 371.43,263.85 370.07,263.66 C367.44,263.34 349.06,264.66 340.94,265.30 C320.56,267.05 383.28,284.30 383.28,284.30 C358.28,288.91 291.80,307.83 276.67,317.23 C275.83,317.76 271.96,320.41 271.36,320.97 C270.10,322.16 269.72,323.44 270.04,324.62 C272.24,326.18 276.14,327.18 278.73,327.55 C289.08,328.99 316.80,327.56 333.24,324.96 C341.31,323.57 370.36,316.62 379.09,314.71 C375.76,316.39 338.37,327.11 322.82,331.32 C292.80,338.75 241.45,350.75 238.83,352.03 C238.83,352.03 239.26,353.74 239.26,353.74 C248.47,357.81 279.50,360.86 291.44,360.38 C297.37,360.07 310.84,359.06 320.10,357.59 C329.15,356.06 371.69,345.93 376.27,345.23 C377.14,345.11 378.00,344.98 378.87,344.85 C372.32,346.75 336.10,355.73 319.98,359.72 C302.13,364.22 297.42,367.84 296.57,368.71 C296.57,368.71 297.26,370.56 297.26,370.56 C301.37,371.88 316.93,372.00 323.27,371.59 C327.91,371.27 346.12,369.25 354.12,368.04 C375.63,364.41 383.81,361.56 385.06,361.10 C380.96,361.11 350.54,373.09 336.86,378.27 C331.95,380.26 329.61,381.29 327.65,383.01 C328.07,383.99 332.39,383.84 338.67,383.28 C348.50,382.32 354.46,381.45 362.11,380.15 C360.63,380.81 359.60,381.24 359.00,381.45 C358.41,381.66 357.43,381.94 356.05,382.29" fill="none" stroke="rgb(255, 252, 239)" stroke-width="60.00" stroke-opacity="1.00" stroke-linejoin="round"/>
<path d="M288.26,417.28 C287.83,417.26 287.46,417.23 287.16,417.20 C287.16,417.20 283.84,421.46 283.12,423.13 C282.24,425.23 281.89,429.27 282.64,430.70 C283.36,431.99 286.16,433.48 287.75,433.65 C289.33,433.80 292.11,432.94 293.05,432.00 C293.96,431.05 294.73,428.32 294.53,426.71 C294.31,425.13 292.78,421.78 291.60,420.46 C290.51,419.27 287.89,417.90 286.75,418.05 C285.42,418.27 283.74,421.20 283.63,423.38 C283.55,425.63 284.78,428.99 286.26,429.62 C287.88,429.26 289.30,426.52 289.28,424.21 C289.25,423.04 288.75,420.86 288.26,419.94 C287.65,418.88 285.98,417.56 284.83,417.25 C282.82,416.77 278.19,418.70 277.18,420.51 C276.62,421.57 276.65,423.86 277.22,425.05 C278.31,427.15 281.14,428.86 283.60,430.13 C284.41,430.55 285.21,430.96 286.01,431.37" fill="none" stroke="rgb(255, 235, 119)" stroke-width="25.00" stroke-opacity="1.00" stroke-linejoin="round"/>
<path d="M444.44,407.04 C424.82,409.27 416.02,393.86 420.17,386.32 C427.27,381.95 466.25,393.52 449.94,388.91" fill="none" stroke="rgb(255, 235, 119)" stroke-width="25.00" stroke-opacity="1.00" stroke-linejoin="round"/>
<path d="M89.67,251.96 C88.86,251.98 78.48,258.95 75.13,262.03 C73.40,263.64 69.98,267.50 68.47,270.10 C61.41,282.39 52.22,308.38 45.89,316.98 C42.40,321.67 34.83,327.92 31.32,329.73 C29.23,330.79 26.04,331.67 23.35,331.72" fill="none" stroke="rgb(241, 181, 123)" stroke-width="25.00" stroke-opacity="1.00" stroke-linejoin="round"/>
<path d="M79.44,256.73 C79.44,256.73 85.52,252.17 85.52,252.17" fill="none" stroke="rgb(241, 181, 123)" stroke-width="25.00" stroke-opacity="1.00" stroke-linejoin="round"/>
<path d="M95.84,248.63 C95.84,248.63 100.94,249.31 100.94,249.31" fill="none" stroke="rgb(241, 181, 123)" stroke-width="25.00" stroke-opacity="1.00" stroke-linejoin="round"/>
<path d="M134.96,252.94 C134.96,252.94 139.37,256.44 141.85,259.34 C143.51,261.30 147.34,266.98 148.41,269.04 C150.73,273.63 153.36,285.48 154.02,292.40 C154.37,296.33 154.46,314.88 155.12,321.28 C155.41,324.08 156.43,329.96 157.41,333.67 C158.28,336.87 160.10,340.40 161.99,341.64 C166.23,344.36 178.21,349.04 183.64,349.82 C188.41,350.48 207.78,349.27 209.55,349.15 C214.78,348.81 229.58,348.97 234.98,348.18 C239.07,347.55 253.02,345.66 259.26,343.47 C262.57,342.29 267.46,340.15 269.87,338.73 C272.54,337.11 277.41,333.10 279.36,330.80 C282.41,327.17 289.97,314.48 293.27,308.11 C301.34,292.51 276.90,277.79 278.13,268.93" fill="none" stroke="rgb(241, 181, 123)" stroke-width="25.00" stroke-opacity="1.00" stroke-linejoin="round"/>
<path d="M307.87,259.46 C308.98,271.64 305.93,293.02 302.99,303.24 C301.61,307.94 294.50,322.11 291.40,325.73 C287.96,329.70 276.01,338.17 271.18,341.59" fill="none" stroke="rgb(241, 181, 123)" stroke-width="25.00" stroke-opacity="1.00" stroke-linejoin="round"/>
<path d="M158.55,131.87 C157.86,131.83 173.92,131.07 179.89,132.74 C185.47,134.33 200.03,140.31 206.95,143.61 C212.24,146.18 225.88,153.82 231.43,158.03 C241.02,165.35 254.43,180.17 258.16,184.83 C259.24,186.17 261.04,188.40 261.76,189.29" fill="none" stroke="rgb(241, 181, 123)" stroke-width="25.00" stroke-opacity="1.00" stroke-linejoin="round"/>
<path d="M351.13,151.18 C356.07,157.05 360.45,163.61 361.17,164.74" fill="none" stroke="rgb(241, 181, 123)" stroke-width="25.00" stroke-opacity="1.00" stroke-linejoin="round"/>
<path d="M402.60,264.16 C403.98,271.58 406.45,285.76 407.55,292.52 C409.23,303.99 411.49,333.87 412.35,349.61 C412.66,355.76 412.16,361.92 412.04,363.37 C412.04,363.37 411.96,364.17 411.96,364.17" fill="none" stroke="rgb(241, 181, 123)" stroke-width="25.00" stroke-opacity="1.00" stroke-linejoin="round"/>
<path d="M295.27,253.14 C295.50,255.01 295.62,256.18 295.63,256.64 C295.65,257.52 289.32,279.92 288.13,283.56 C286.79,287.62 279.52,305.20 278.02,308.25 C275.43,313.46 269.06,323.73 266.15,327.22 C263.80,329.97 260.55,332.04 257.34,333.27 C248.72,336.60 248.17,336.59 248.17,336.59 C247.77,335.79 257.24,317.08 260.98,308.48 C271.21,284.46 278.72,246.60 278.72,246.60 C277.36,248.44 267.47,263.57 263.23,270.11 C255.10,283.37 246.85,300.91 239.33,313.33 C235.64,319.52 229.57,330.31 226.78,334.83 C225.51,336.85 220.94,342.76 219.22,343.13 C218.78,343.22 209.04,340.52 208.83,340.21 C208.95,339.08 227.02,304.02 234.04,290.05 C242.54,272.11 245.93,263.82 257.13,241.38 C257.29,241.05 257.61,240.39 258.08,239.40 C256.11,240.72 248.11,249.45 242.61,255.90 C240.38,258.55 229.77,272.57 225.56,278.42 C220.83,285.31 198.24,321.46 195.97,325.59 C194.53,328.27 191.78,333.36 190.47,335.78 C189.34,337.83 187.29,340.06 185.85,340.52 C184.02,341.06 173.87,339.25 173.87,339.25 C173.69,336.78 191.25,304.18 198.63,291.32 C206.24,278.42 221.20,254.58 228.59,243.16 C230.23,240.45 233.14,235.61 233.88,232.65 C234.23,231.18 234.47,229.60 234.50,228.87 C232.85,230.42 202.63,266.06 198.32,271.86 C190.95,282.10 169.48,314.62 166.54,318.38 C164.28,321.23 163.46,322.13 161.97,323.63 C162.54,321.95 180.10,295.61 188.94,280.01 C194.74,269.69 196.42,266.48 201.95,255.50 C208.60,243.21 214.59,227.20 222.21,207.79 C221.50,208.35 207.65,225.37 204.98,228.93 C194.46,242.95 170.66,281.34 167.52,285.50 C166.06,287.43 163.64,289.56 162.32,290.10 C162.32,290.10 171.46,268.53 171.46,268.53 C171.46,268.53 172.49,267.06 172.49,267.06" fill="none" stroke="rgb(241, 181, 123)" stroke-width="25.00" stroke-opacity="1.00" stroke-linejoin="round"/>
<path d="M197.29,231.65 C197.29,231.65 198.10,230.50 198.10,230.50" fill="none" stroke="rgb(241, 181, 123)" stroke-width="25.00" stroke-opacity="1.00" stroke-linejoin="round"/>
<path d="M185.31,253.98 C185.31,253.98 186.50,252.02 186.50,252.02" fill="none" stroke="rgb(241, 181, 123)" stroke-width="25.00" stroke-opacity="1.00" stroke-linejoin="round"/>
<path d="M185.68,251.66 C185.68,251.66 187.98,249.07 187.98,249.07" fill="none" stroke="rgb(241, 181, 123)" stroke-width="25.00" stroke-opacity="1.00" stroke-linejoin="round"/>
<path d="M200.29,208.95 C200.29,208.95 200.97,207.60 200.97,207.60" fill="none" stroke="rgb(241, 181, 123)" stroke-width="25.00" stroke-opacity="1.00" stroke-linejoin="round"/>
<path d="M199.88,226.74 C199.88,226.74 201.16,220.65 201.16,220.65" fill="none" stroke="rgb(241, 181, 123)" stroke-width="25.00" stroke-opacity="1.00" stroke-linejoin="round"/>
<path d="M204.41,205.97 C214.96,192.32 236.21,175.88 226.11,162.55 C223.26,163.37 202.27,184.73 196.16,192.45 C196.16,192.45 180.20,196.66 180.20,196.66" fill="none" stroke="rgb(241, 181, 123)" stroke-width="25.00" stroke-opacity="1.00" stroke-linejoin="round"/>
<path d="M153.03,263.60 C153.03,263.60 152.03,267.51 152.03,267.51 C152.03,267.51 150.90,262.74 150.90,262.74 C150.90,262.74 142.79,256.73 142.79,256.73" fill="none" stroke="rgb(241, 181, 123)" stroke-width="25.00" stroke-opacity="1.00" stroke-linejoin="round"/>
<path d="M140.95,252.53 C140.95,252.53 135.99,252.05 135.99,252.05" fill="none" stroke="rgb(241, 181, 123)" stroke-width="25.00" stroke-opacity="1.00" stroke-linejoin="round"/>
<path d="M169.79,191.01 C169.79,191.01 180.29,187.44 180.29,187.44 C184.64,181.72 196.67,165.63 198.64,162.29 C198.64,162.29 202.44,154.00 202.86,151.67 C202.09,150.46 198.00,150.13 195.34,150.60 C192.68,151.11 188.06,152.62 185.34,154.21 C181.52,156.49 175.75,162.79 169.75,170.79 C165.69,176.31 160.54,183.38 159.44,184.92 C159.44,184.92 156.58,186.12 156.58,186.12" fill="none" stroke="rgb(241, 181, 123)" stroke-width="25.00" stroke-opacity="1.00" stroke-linejoin="round"/>
<path d="M145.65,190.30 C145.65,190.30 140.99,189.60 140.99,189.60" fill="none" stroke="rgb(241, 181, 123)" stroke-width="25.00" stroke-opacity="1.00" stroke-linejoin="round"/>
<path d="M138.43,184.93 C138.43,184.93 145.72,181.78 145.72,181.78 C156.24,168.10 166.64,151.66 168.23,147.23 C169.03,144.90 168.92,141.40 167.88,140.34 C166.78,139.30 162.04,138.47 159.43,138.86 C156.67,139.33 153.36,141.34 151.43,143.52 C146.52,149.21 133.62,171.19 128.52,179.97 C128.52,179.97 119.95,184.26 119.95,184.26" fill="none" stroke="rgb(241, 181, 123)" stroke-width="25.00" stroke-opacity="1.00" stroke-linejoin="round"/>
<path d="M69.82,241.17 C69.82,241.17 68.59,240.11 68.59,240.11" fill="none" stroke="rgb(241, 181, 123)" stroke-width="25.00" stroke-opacity="1.00" stroke-linejoin="round"/>
<path d="M109.40,177.60 C110.58,175.52 119.45,161.51 124.40,155.35 C127.08,152.09 132.37,145.71 134.30,143.69 C134.98,142.99 138.58,139.94 138.58,139.94 C133.58,142.74 123.13,151.03 118.33,155.54 C110.79,162.64 100.82,175.30 100.21,176.08" fill="none" stroke="rgb(241, 181, 123)" stroke-width="25.00" stroke-opacity="1.00" stroke-linejoin="round"/>
<path d="M80.97,200.35 C80.97,200.35 81.57,199.22 81.57,199.22" fill="none" stroke="rgb(241, 181, 123)" stroke-width="25.00" stroke-opacity="1.00" stroke-linejoin="round"/>
<path d="M102.35,187.69 C102.35,187.69 103.55,187.00 103.55,187.00" fill="none" stroke="rgb(241, 181, 123)" stroke-width="25.00" stroke-opacity="1.00" stroke-linejoin="round"/>
<path d="M100.70,186.68 C100.70,186.68 104.30,183.76 104.30,183.76" fill="none" stroke="rgb(241, 181, 123)" stroke-width="25.00" stroke-opacity="1.00" stroke-linejoin="round"/>
<path d="M65.75,250.14 C61.62,259.02 49.01,279.54 44.46,285.31 C43.44,286.57 42.73,287.02 41.91,286.98 C40.96,286.88 40.28,286.07 40.22,284.85 C40.16,282.31 44.13,264.07 45.80,256.50 C46.62,252.63 52.85,233.40 54.05,230.31 C55.91,225.56 63.33,210.69 65.73,206.61 C72.04,195.96 81.92,183.28 82.50,182.53 C81.14,183.79 71.59,195.32 68.25,200.14 C61.33,210.15 42.09,244.45 41.16,246.50 C39.66,249.83 31.93,272.34 31.53,273.68 C31.12,275.08 25.56,298.54 24.88,302.49 C23.51,310.58 23.80,318.14 24.50,319.05 C24.86,319.47 26.05,319.77 26.70,319.56 C28.36,318.95 31.87,314.32 33.72,311.09 C35.47,307.98 38.67,302.17 40.13,299.48 C40.46,298.85 46.89,283.65 48.69,280.07" fill="none" stroke="rgb(241, 181, 123)" stroke-width="25.00" stroke-opacity="1.00" stroke-linejoin="round"/>
<path d="M173.44,135.83 C174.60,137.56 176.04,138.84 178.16,139.93 C181.08,141.41 188.17,143.70 190.07,144.70 C191.16,145.28 196.61,148.58 197.61,149.18" fill="none" stroke="rgb(241, 181, 123)" stroke-width="25.00" stroke-opacity="1.00" stroke-linejoin="round"/>
<path d="M418.07,236.58 C418.07,236.58 417.86,263.06 417.86,263.06 C419.85,269.66 422.57,281.73 423.21,286.78 C424.30,295.67 425.53,327.72 427.58,343.45 C429.18,355.63 429.81,359.61 430.31,362.75 C430.52,363.98 430.86,366.06 431.00,366.91" fill="none" stroke="rgb(241, 181, 123)" stroke-width="25.00" stroke-opacity="1.00" stroke-linejoin="round"/>
<path d="M318.77,122.31 C320.84,124.65 325.28,125.73 334.61,134.15 C345.41,143.91 343.93,141.91 354.00,150.31 C362.12,157.08 363.18,142.26 364.01,143.29" fill="none" stroke="rgb(241, 181, 123)" stroke-width="25.00" stroke-opacity="1.00" stroke-linejoin="round"/>
<path d="M387.40,153.85 C387.40,153.85 338.93,127.98 350.58,131.38 C328.31,123.46 423.44,188.22 457.06,259.23 C457.23,259.59 465.70,278.96 469.09,286.68 C472.47,294.44 475.84,304.11 476.98,309.79 C478.50,317.59 479.76,328.53 480.70,340.41 C481.21,347.74 482.13,362.77 481.62,367.30 C481.31,369.83 479.84,375.78 479.07,378.34 C478.23,381.06 475.66,386.10 473.72,387.41 C473.29,387.69 469.09,389.99 468.33,390.25 C467.52,390.52 462.96,391.38 461.31,391.69" fill="none" stroke="rgb(241, 181, 123)" stroke-width="25.00" stroke-opacity="1.00" stroke-linejoin="round"/>
<path d="M383.25,165.19 C383.25,165.19 395.02,166.48 395.02,166.48 C395.02,166.48 413.35,192.66 413.35,192.66" fill="none" stroke="rgb(241, 181, 123)" stroke-width="25.00" stroke-opacity="1.00" stroke-linejoin="round"/>
<path d="M410.08,193.96 C410.08,193.96 413.25,197.81 413.25,197.81" fill="none" stroke="rgb(241, 181, 123)" stroke-width="25.00" stroke-opacity="1.00" stroke-linejoin="round"/>
<path d="M407.64,191.75 C407.64,191.75 409.46,193.06 409.46,193.06" fill="none" stroke="rgb(241, 181, 123)" stroke-width="25.00" stroke-opacity="1.00" stroke-linejoin="round"/>
<path d="M410.20,194.28 C410.20,194.28 412.99,197.79 412.99,197.79" fill="none" stroke="rgb(241, 181, 123)" stroke-width="25.00" stroke-opacity="1.00" stroke-linejoin="round"/>
<path d="M419.37,229.16 C419.37,229.16 420.43,233.83 420.43,233.83" fill="none" stroke="rgb(241, 181, 123)" stroke-width="25.00" stroke-opacity="1.00" stroke-linejoin="round"/>
<path d="M422.07,190.96 C422.07,190.96 421.10,212.61 421.10,212.61" fill="none" stroke="rgb(241, 181, 123)" stroke-width="25.00" stroke-opacity="1.00" stroke-linejoin="round"/>
<path d="M422.66,218.34 C422.66,218.34 428.47,234.39 428.47,234.39 C430.46,237.87 438.30,252.98 441.41,259.29 C445.60,268.32 447.64,273.12 451.44,284.09 C453.94,291.48 462.29,332.65 464.89,344.02 C467.09,353.53 467.91,362.16 467.17,367.31 C466.89,369.14 465.47,375.79 465.28,376.48 C464.59,378.96 463.84,380.93 462.99,382.42 C462.75,382.84 462.43,383.40 462.05,384.10" fill="none" stroke="rgb(241, 181, 123)" stroke-width="25.00" stroke-opacity="1.00" stroke-linejoin="round"/>
<path d="M417.15,241.33 C421.27,249.29 424.34,256.11 428.16,266.69 C435.28,287.09 439.48,301.62 443.30,319.84 C445.11,329.36 446.21,337.01 447.09,346.12 C447.96,357.62 449.06,367.78 450.21,373.83 C450.67,376.17 452.80,379.48 453.82,380.96" fill="none" stroke="rgb(241, 181, 123)" stroke-width="25.00" stroke-opacity="1.00" stroke-linejoin="round"/>
<path d="M215.84,153.49 C215.84,153.49 214.92,154.71 214.78,155.77 C214.68,156.55 214.95,159.03 214.84,161.01 C214.81,161.47 214.75,162.35 214.66,163.64" fill="none" stroke="rgb(241, 181, 123)" stroke-width="25.00" stroke-opacity="1.00" stroke-linejoin="round"/>
<path d="M83.84,177.54 C84.75,177.38 85.69,177.07 87.51,176.29 C90.02,175.19 93.28,173.77 94.02,173.44" fill="none" stroke="rgb(241, 181, 123)" stroke-width="25.00" stroke-opacity="1.00" stroke-linejoin="round"/>
<path d="M83.02,176.67 C83.95,176.28 88.58,174.22 96.69,169.61 C99.19,168.30 101.57,167.46 102.08,167.35 C102.08,167.35 102.54,167.93 102.54,167.93" fill="none" stroke="rgb(241, 181, 123)" stroke-width="25.00" stroke-opacity="1.00" stroke-linejoin="round"/>
<path d="M88.17,174.30 C88.17,174.30 88.10,174.17 88.10,174.17 C88.43,173.46 91.13,172.00 92.70,171.35 C93.13,171.17 93.87,170.89 94.94,170.51" fill="none" stroke="rgb(241, 181, 123)" stroke-width="25.00" stroke-opacity="1.00" stroke-linejoin="round"/>
<path d="M70.62,250.38 C75.44,249.09 87.91,245.32 91.67,244.71 C98.12,243.71 103.46,243.76 105.93,243.86" fill="none" stroke="rgb(241, 181, 123)" stroke-width="25.00" stroke-opacity="1.00" stroke-linejoin="round"/>
<path d="M73.83,251.16 C74.51,251.60 76.76,251.54 79.89,250.60 C82.49,249.81 88.26,247.91 89.46,247.57 C92.13,246.83 99.30,245.51 103.54,245.23 C104.50,245.18 105.47,245.12 106.43,245.07" fill="none" stroke="rgb(241, 181, 123)" stroke-width="25.00" stroke-opacity="1.00" stroke-linejoin="round"/>
<path d="M77.34,251.52 C77.34,251.52 77.25,251.49 77.25,251.49 C83.82,248.81 106.29,246.57 110.78,246.24 C111.44,246.18 112.69,246.06 114.51,245.87" fill="none" stroke="rgb(241, 181, 123)" stroke-width="25.00" stroke-opacity="1.00" stroke-linejoin="round"/>
<path d="M76.75,251.35 C76.75,251.35 76.50,251.49 76.50,251.49 C76.81,251.56 77.30,252.85 74.79,253.49 C83.96,250.60 95.91,247.29 101.91,246.37 C112.70,244.78 128.18,246.58 131.04,246.94" fill="none" stroke="rgb(241, 181, 123)" stroke-width="25.00" stroke-opacity="1.00" stroke-linejoin="round"/>
<path d="M97.18,246.92 C97.18,246.92 112.13,247.31 121.80,248.38 C128.61,249.20 141.91,250.84 145.68,251.58 C149.86,252.41 156.09,254.28 158.79,255.17" fill="none" stroke="rgb(241, 181, 123)" stroke-width="25.00" stroke-opacity="1.00" stroke-linejoin="round"/>
<path d="M129.29,247.08 C134.57,248.15 147.22,250.80 154.59,252.39 C163.87,254.59 182.49,260.82 183.27,260.78 C183.62,260.75 184.36,260.62 185.51,260.38" fill="none" stroke="rgb(241, 181, 123)" stroke-width="25.00" stroke-opacity="1.00" stroke-linejoin="round"/>
<path d="M94.02,187.59 C99.02,187.36 112.99,187.11 116.00,187.26 C118.33,187.38 131.81,188.84 137.52,189.78 C140.21,190.26 148.77,192.21 158.92,193.87 C166.26,195.06 173.56,197.38 182.53,201.08 C184.94,202.12 189.94,204.82 190.53,205.22 C191.86,206.16 193.55,208.72 193.99,210.25 C194.79,213.15 194.54,216.15 193.74,219.78 C193.02,222.87 190.78,227.83 189.40,229.80 C181.74,240.56 171.84,250.63 170.02,251.82 C168.54,252.77 165.76,253.69 164.10,253.66 C163.79,253.66 118.35,244.80 114.50,244.29 C110.20,243.74 96.29,243.25 94.40,243.27 C84.98,243.41 75.37,243.13 72.43,241.72 C70.26,240.64 67.39,238.40 66.37,236.66 C65.38,234.87 64.79,229.79 65.26,227.27 C66.21,222.32 70.93,209.90 73.62,205.53 C75.27,202.88 80.54,196.34 83.10,194.23 C85.76,192.09 92.77,188.52 96.62,187.50 C100.29,186.57 112.45,185.51 118.16,185.89 C127.80,186.55 162.97,192.55 167.45,193.67 C169.72,194.24 186.11,199.26 190.85,201.90 C193.14,203.20 196.17,206.19 197.15,207.80 C198.07,209.34 198.65,212.15 198.45,214.60 C198.00,219.53 195.07,229.65 192.40,234.42 C191.21,236.51 185.22,243.87 181.98,247.30 C179.93,249.46 170.09,257.53 169.74,257.83 C169.48,258.07 168.79,258.72 167.69,259.77" fill="none" stroke="rgb(241, 181, 123)" stroke-width="25.00" stroke-opacity="1.00" stroke-linejoin="round"/>
<path d="M397.33,257.81 C398.31,258.23 400.26,258.27 401.84,257.72 C403.69,257.04 405.77,255.87 406.73,254.87 C406.73,254.87 412.05,248.47 412.79,246.58 C414.11,243.00 414.05,227.90 413.14,221.54 C412.34,216.06 410.76,210.39 406.60,200.87 C404.98,197.25 402.77,193.31 401.01,191.25 C397.81,187.60 389.46,180.47 381.98,176.27 C378.43,174.30 374.20,172.36 371.52,171.66 C369.48,171.15 364.63,170.51 362.74,170.56 C362.74,170.56 361.06,169.54 361.06,169.54 C366.05,169.83 376.81,174.22 381.70,176.89 C387.56,180.22 395.16,185.02 398.70,187.82 C402.66,190.97 407.73,196.43 410.98,200.82 C412.39,202.76 418.15,212.21 422.12,219.46 C422.77,220.63 423.78,222.44 424.14,223.07" fill="none" stroke="rgb(241, 181, 123)" stroke-width="25.00" stroke-opacity="1.00" stroke-linejoin="round"/>
<path d="M94.41,194.39 C91.22,198.20 79.00,211.14 76.73,217.40 C74.60,223.35 73.15,227.71 72.91,228.89 C72.54,230.91 73.07,233.48 74.40,234.49 C75.90,235.57 79.44,236.31 86.52,237.40 C95.22,238.74 105.18,239.94 111.98,240.77 C122.53,242.26 137.82,245.28 139.67,245.57 C148.92,246.97 161.46,250.00 163.75,250.26 C166.44,250.54 170.96,250.25 172.89,249.28 C174.88,248.23 177.99,243.91 179.88,239.84 C180.87,237.68 188.47,218.70 188.95,217.27 C189.73,214.88 189.95,209.65 189.33,207.88 C189.02,207.05 187.22,205.03 186.41,204.58 C183.93,203.23 168.54,198.50 164.38,197.65 C159.47,196.66 147.81,195.17 141.58,194.24 C133.32,193.03 122.55,192.54 111.28,192.58 C107.66,192.66 103.01,193.12 100.22,194.27 C98.69,194.92 95.52,197.64 93.92,200.33 C91.37,204.66 87.24,218.48 86.93,223.81 C86.77,226.84 87.12,227.93 87.40,228.54 C88.59,228.27 89.40,227.58 90.28,225.93 C92.00,222.69 99.02,206.59 101.32,202.59 C102.27,200.98 102.93,200.06 103.74,199.17 C104.84,200.47 104.25,205.96 103.67,210.44 C101.15,228.26 102.45,231.45 103.03,232.50 C104.60,230.79 105.42,229.50 106.12,227.39 C108.32,220.75 114.36,208.90 117.25,205.97 C118.86,204.41 119.71,204.10 120.98,203.89 C121.80,205.13 122.16,205.93 122.17,207.12 C122.19,212.29 119.38,228.85 119.18,232.08 C119.14,232.77 119.23,233.15 119.45,233.85 C119.99,232.82 123.73,216.60 125.79,211.54 C128.24,205.63 130.59,204.75 131.97,204.55 C133.11,205.58 133.81,206.86 134.15,208.78 C134.79,212.54 133.27,234.09 133.52,235.45 C134.70,232.56 136.40,227.09 137.42,224.67 C138.88,221.29 142.09,216.07 144.02,213.88 C145.50,212.24 148.08,210.20 149.55,209.41 C150.23,209.05 150.92,209.15 152.26,209.66 C153.08,210.81 153.73,213.82 153.71,216.47 C153.63,221.72 150.69,234.46 148.62,239.33 C147.92,238.27 151.53,223.75 154.15,218.22 C155.66,215.11 158.42,211.51 159.86,210.59 C161.20,209.78 163.77,209.81 164.96,210.70 C166.04,211.54 168.24,215.04 169.34,218.20 C170.02,220.22 170.58,225.01 170.35,227.27 C169.88,231.33 165.15,241.58 164.67,242.89 C168.90,228.14 174.62,218.41 175.13,217.87 C175.13,217.87 177.25,215.42 177.96,214.60" fill="none" stroke="rgb(254, 194, 190)" stroke-width="25.00" stroke-opacity="1.00" stroke-linejoin="round"/>
<path d="M180.27,209.82 C180.27,209.82 180.27,210.45 180.27,210.45 C180.27,211.86 180.29,212.86 180.31,213.43 C180.33,213.94 180.38,214.70 180.46,215.71" fill="none" stroke="rgb(254, 194, 190)" stroke-width="25.00" stroke-opacity="1.00" stroke-linejoin="round"/>
<path d="M309.28,183.23 C309.66,183.23 343.67,176.55 351.66,175.55 C359.01,174.70 367.15,174.60 372.89,175.69 C375.63,176.23 379.73,177.96 382.28,179.74 C386.69,182.89 394.88,192.50 396.81,196.20 C399.04,200.52 403.13,212.14 404.59,217.74 C406.51,225.22 407.97,237.18 407.86,242.05 C407.79,244.33 406.88,246.73 405.84,247.37 C404.47,248.19 394.86,252.34 393.97,252.70 C390.79,253.96 381.94,255.19 368.30,256.73 C340.85,259.85 305.78,262.28 302.32,247.38 C302.01,246.02 301.55,242.88 301.57,242.04 C301.59,241.69 309.03,226.90 311.59,220.80 C313.79,215.50 314.99,208.11 315.46,199.92 C315.49,199.34 316.24,188.30 316.13,187.35 C316.13,187.35 317.79,205.28 317.36,211.36 C317.27,212.64 315.98,231.43 316.30,238.58 C316.91,252.12 363.12,248.68 382.46,243.97 C386.43,242.99 391.31,242.03 392.03,241.62 C393.61,240.67 395.24,238.11 395.56,236.64 C395.90,234.97 395.84,229.59 395.25,226.82 C394.44,223.15 389.18,210.25 386.45,205.30 C384.51,201.82 380.76,197.02 378.86,195.50 C375.37,192.76 365.09,188.53 360.36,187.80 C357.51,187.37 352.61,187.20 349.75,187.63 C346.80,188.10 340.70,190.13 338.12,191.50 C335.44,192.97 331.35,197.00 330.21,199.68 C328.90,202.89 328.22,209.45 328.28,212.81 C328.36,216.60 329.43,223.95 330.64,227.55 C332.72,233.57 337.64,240.01 339.13,240.74 C339.13,240.74 340.46,240.47 340.46,240.47 C342.01,238.43 343.13,234.00 343.45,231.29 C344.34,223.25 342.94,207.72 342.94,207.72 C348.59,222.97 351.92,227.02 352.23,227.29 C352.34,226.74 350.76,208.85 351.26,205.33 C351.66,202.79 352.45,202.06 353.66,201.46 C354.98,201.91 357.56,204.79 359.28,207.69 C367.45,221.60 370.20,232.66 370.02,234.26 C368.95,232.98 367.91,226.23 367.72,223.41 C367.54,220.43 368.08,214.75 368.87,212.41 C369.68,210.09 372.08,207.25 373.28,206.98 C374.45,206.78 376.50,208.86 377.23,210.80 C379.16,216.05 379.81,226.54 379.13,231.26 C379.13,231.26 378.64,227.98 378.64,227.98" fill="none" stroke="rgb(254, 194, 190)" stroke-width="25.00" stroke-opacity="1.00" stroke-linejoin="round"/>
<path d="M324.75,186.51 C325.47,186.44 327.19,186.15 327.19,186.15 C328.72,186.05 331.29,186.08 332.03,186.18" fill="none" stroke="rgb(254, 194, 190)" stroke-width="25.00" stroke-opacity="1.00" stroke-linejoin="round"/>
<path d="M322.03,185.10 C323.90,185.36 332.14,185.32 332.94,185.41 C333.49,185.48 334.71,185.68 336.61,186.03" fill="none" stroke="rgb(254, 194, 190)" stroke-width="25.00" stroke-opacity="1.00" stroke-linejoin="round"/>
<path d="M265.92,387.27 C262.49,388.47 258.19,392.65 256.01,395.32 C252.72,399.48 249.20,411.07 248.70,415.84 C248.28,420.06 248.50,429.57 249.14,433.55 C249.82,437.67 252.85,444.27 255.91,447.97 C257.54,449.90 261.37,453.10 263.35,453.89 C265.06,454.52 272.53,454.92 272.91,454.96 C274.30,455.10 281.72,455.94 284.95,455.26 C287.50,454.69 293.72,452.11 295.71,450.67 C297.33,449.48 302.00,444.24 302.84,442.97 C304.72,440.07 306.31,431.84 306.77,425.84 C307.01,422.52 307.07,418.32 306.70,416.06 C306.31,413.75 304.82,408.49 303.93,406.77 C302.80,404.73 299.74,398.92 299.10,398.07 C297.92,396.53 293.21,393.74 290.61,392.73 C288.15,391.80 283.14,390.77 280.77,390.67 C279.72,390.64 277.78,391.17 276.47,391.94 C274.79,392.98 271.72,396.16 268.96,399.90 C266.59,402.94 264.82,406.23 263.97,408.96 C263.33,411.09 262.26,416.12 262.05,419.33 C261.86,422.67 262.82,429.25 263.97,432.86 C264.46,434.35 266.10,437.17 267.21,438.36 C268.26,439.45 271.14,441.46 272.36,441.89 C274.91,442.76 280.69,443.29 282.73,443.65 C283.36,443.75 283.99,443.86 284.62,443.97" fill="none" stroke="rgb(255, 127, 129)" stroke-width="25.00" stroke-opacity="1.00" stroke-linejoin="round"/>
<path d="M286.91,401.15 C286.91,401.15 286.47,401.31 286.47,401.31 C285.67,401.66 278.39,404.79 278.10,405.04 C278.10,405.04 277.82,405.36 277.60,405.67" fill="none" stroke="rgb(255, 127, 129)" stroke-width="25.00" stroke-opacity="1.00" stroke-linejoin="round"/>
<path d="M442.51,372.49 C445.43,374.48 455.04,373.35 454.64,375.37 C453.45,381.41 457.20,381.42 456.82,387.00 C456.31,394.64 455.08,398.20 454.62,401.49 C454.40,402.95 453.01,407.39 452.24,409.19 C450.64,412.89 447.37,417.30 445.56,419.27 C443.74,421.23 439.59,423.98 437.53,424.76 C434.13,425.96 431.73,426.57 429.38,426.41 C426.69,426.19 423.00,425.26 419.99,423.37 C416.79,421.32 414.28,418.92 412.83,417.25 C409.52,413.38 405.28,405.37 404.66,401.51 C404.06,397.55 405.76,388.54 407.81,383.74 C409.47,379.91 413.02,374.63 414.39,373.16 C415.83,371.65 418.41,369.69 420.03,368.91 C421.96,368.02 426.40,367.25 429.74,367.46 C431.32,367.57 439.25,369.13 438.88,370.04 C436.24,376.61 442.27,367.06 448.49,370.19 C453.31,372.61 451.32,371.21 451.32,371.21 C451.01,371.37 447.17,374.38 434.00,374.23 C431.60,374.20 427.46,374.06 429.07,376.00 C431.97,379.49 422.30,380.28 420.80,382.02 C419.38,383.74 416.97,388.21 416.43,390.89 C416.02,393.06 415.87,399.78 416.21,401.57 C416.71,404.04 418.57,407.03 419.80,408.17 C420.72,408.99 423.78,419.92 426.26,421.16 C429.57,422.79 437.41,415.30 437.41,415.30" fill="none" stroke="rgb(255, 127, 129)" stroke-width="25.00" stroke-opacity="1.00" stroke-linejoin="round"/>
<path d="M444.62,379.89 C446.67,382.04 449.24,385.41 450.53,388.64 C450.65,388.92 450.89,389.26 450.89,389.26" fill="none" stroke="rgb(255, 127, 129)" stroke-width="25.00" stroke-opacity="1.00" stroke-linejoin="round"/>
<path d="M87.55,424.24 C85.41,423.48 81.21,423.26 80.14,423.44 C79.11,423.65 77.03,425.25 76.71,426.72 C76.56,427.52 77.86,429.96 79.38,431.15 C81.89,433.09 91.54,436.06 94.86,437.38 C97.76,438.51 101.70,439.64 104.01,439.83 C106.13,439.98 109.40,439.26 111.74,437.89 C112.67,437.35 113.72,436.63 113.72,436.63 C113.78,435.63 107.09,433.56 96.77,431.60 C88.52,429.97 83.02,428.68 78.00,426.84 C74.28,425.44 69.97,423.93 69.31,423.93 C68.92,423.94 68.24,424.25 68.24,424.25" fill="none" stroke="rgb(255, 127, 129)" stroke-width="20.00" stroke-opacity="1.00" stroke-linejoin="round"/>
<path d="M71.50,167.91 C71.50,167.91 70.69,168.75 70.69,168.75 C66.25,172.49 56.14,181.38 52.50,185.78 C46.87,192.62 41.60,200.21 38.98,205.22 C33.63,215.52 31.66,225.81 31.66,225.81 C30.76,211.79 28.61,180.72 29.52,174.77 C30.25,170.19 34.18,161.58 36.69,158.99 C38.13,157.55 41.79,155.62 44.15,155.17 C46.91,154.68 52.24,155.06 54.35,155.54 C56.23,156.02 60.51,158.59 61.93,160.30 C63.10,161.74 63.71,163.19 63.71,163.19 C63.45,163.35 52.09,166.38 49.45,167.75 C47.70,168.70 43.72,172.27 41.75,175.23 C40.22,177.57 38.65,181.84 38.52,183.39 C38.34,185.87 40.73,186.55 40.73,186.55 C40.73,186.55 42.51,185.52 42.51,185.52" fill="none" stroke="rgb(155, 102, 78)" stroke-width="20.00" stroke-opacity="1.00" stroke-linejoin="round"/>
<path d="M229.03,188.36 C229.06,189.73 228.85,207.47 229.97,211.92 C231.07,216.18 235.95,226.49 238.69,230.78 C240.98,234.34 248.96,243.54 253.19,245.71 C256.87,247.55 262.13,249.67 265.00,249.84 C267.34,249.95 272.80,249.62 274.70,248.75 C276.44,247.92 281.44,243.65 283.80,240.41 C284.56,239.36 293.90,223.72 295.87,219.03 C297.26,215.68 299.34,206.85 299.48,201.60 C299.58,196.86 298.11,183.18 297.52,180.84 C296.90,178.50 294.99,174.96 293.44,173.36 C292.18,172.12 286.39,168.14 283.47,166.51 C279.81,164.52 274.01,163.42 270.90,163.66 C268.03,163.94 263.76,165.05 260.89,166.37 C258.01,167.72 251.98,171.71 249.78,173.77 C247.19,176.22 243.93,180.57 242.77,182.53 C241.68,184.39 239.85,189.00 239.37,191.31 C238.78,194.23 238.31,200.33 238.64,203.76 C239.01,207.32 241.13,215.03 242.65,218.28 C244.06,221.23 248.46,227.27 250.05,229.00 C251.59,230.63 255.88,233.67 257.43,234.42 C259.14,235.21 262.14,235.70 264.07,235.60 C265.77,235.49 269.11,234.63 271.49,233.21 C273.04,232.25 276.64,228.58 278.43,226.14 C280.13,223.78 282.70,218.99 283.44,216.56 C284.91,211.62 286.04,200.93 286.38,189.83 C286.49,186.80 286.13,184.37 284.68,181.13 C284.01,179.68 282.24,177.81 281.01,177.31 C279.88,176.88 276.66,176.46 274.05,176.84 C271.98,177.15 267.19,179.12 265.04,180.87 C263.05,182.53 260.07,186.72 258.86,189.18 C257.47,192.09 255.65,198.48 255.24,201.94 C254.87,205.32 255.17,212.10 255.85,214.49 C256.40,216.30 258.96,220.68 260.76,222.55 C261.90,223.71 264.80,224.65 266.30,224.13 C268.05,223.45 271.23,219.33 272.36,216.21 C273.73,212.33 275.91,197.89 275.93,195.00 C275.95,192.22 276.13,185.51 275.85,184.93 C275.05,184.77 273.70,186.47 272.49,189.26 C267.16,201.80 268.61,215.88 268.61,215.88" fill="none" stroke="rgb(155, 102, 78)" stroke-width="20.00" stroke-opacity="1.00" stroke-linejoin="round"/>
<path d="M29.41,152.94 C29.41,152.94 28.56,153.21 28.24,153.52 C25.53,156.15 20.76,167.19 19.54,172.78 C18.59,177.17 18.17,187.33 18.58,192.68 C18.91,196.78 21.50,210.27 23.18,217.76 C24.92,225.08 28.33,233.43 28.51,233.88 C28.72,234.44 29.17,235.63 29.85,237.48" fill="none" stroke="rgb(98, 73, 57)" stroke-width="12.00" stroke-opacity="1.00" stroke-linejoin="round"/>
<path d="M25.49,228.55 C25.49,228.55 25.81,228.55 25.81,228.55 C25.81,228.55 25.93,228.55 25.93,228.55 C25.85,227.76 25.77,227.44 25.27,226.09 C23.75,221.92 20.38,208.43 19.54,202.90 C18.43,195.52 17.96,184.14 18.27,177.26 C18.46,173.47 19.51,167.27 20.46,163.95 C21.41,160.70 23.75,155.48 25.54,153.26 C27.52,150.88 33.55,146.79 37.18,145.49 C40.46,144.36 48.08,143.42 51.52,143.79 C55.10,144.23 60.44,146.98 62.80,149.04 C65.06,151.06 68.23,154.98 69.80,157.64 C73.31,163.61 74.42,167.59 74.73,169.50" fill="none" stroke="rgb(98, 73, 57)" stroke-width="12.00" stroke-opacity="1.00" stroke-linejoin="round"/>
<path d="M224.02,199.52 C223.97,197.71 225.29,189.77 228.03,184.50 C231.39,177.99 235.80,171.91 238.94,168.93 C243.11,165.03 254.33,158.49 260.12,156.78 C263.29,155.86 269.06,154.96 272.35,155.05 C276.02,155.18 283.21,156.96 286.51,158.60 C289.79,160.27 295.23,164.47 297.57,167.12 C299.72,169.61 303.32,175.46 304.59,178.73 C306.97,185.02 308.88,199.31 308.65,205.79 C308.43,211.34 306.02,221.05 303.69,226.49 C301.65,231.20 296.78,239.78 293.57,243.23 C292.11,244.79 279.32,257.17 279.14,258.88" fill="none" stroke="rgb(98, 73, 57)" stroke-width="12.00" stroke-opacity="1.00" stroke-linejoin="round"/>
<path d="M260.75,381.47 C260.75,381.47 260.18,381.47 260.18,381.47 C254.37,381.40 238.80,399.85 236.43,410.95 C235.61,414.88 234.96,425.20 235.36,429.89 C235.69,433.44 238.85,445.01 242.26,450.31 C243.64,452.43 247.14,456.33 248.74,457.68 C251.96,460.36 263.39,465.07 268.58,466.12 C270.68,466.54 277.02,467.18 279.70,467.16 C282.69,467.11 288.52,466.24 292.39,464.91 C295.51,463.82 301.51,460.54 303.71,458.75 C306.11,456.75 310.18,451.78 311.69,448.89 C313.42,445.52 315.19,439.50 315.83,436.21 C317.24,428.65 316.82,419.31 315.37,412.14 C314.46,407.83 313.01,402.39 311.91,400.00 C310.73,397.45 307.56,392.79 305.42,390.83 C303.27,388.89 298.71,385.89 296.05,384.68 C293.22,383.41 290.06,382.36 285.33,380.92 C280.86,379.58 275.45,379.05 271.34,379.51 C267.72,379.95 262.85,380.86 260.94,381.39 C256.29,382.71 248.69,391.10 246.11,393.99" fill="none" stroke="rgb(98, 73, 57)" stroke-width="12.00" stroke-opacity="1.00" stroke-linejoin="round"/>
<path d="M285.36,409.69 C284.87,409.07 281.09,410.14 278.62,412.12 C276.78,413.67 273.87,418.27 273.26,420.89 C272.53,424.19 272.89,429.16 273.69,430.77 C274.35,431.98 276.69,434.85 279.19,436.55 C281.42,438.04 286.15,439.27 287.51,439.19 C290.68,438.95 295.13,436.61 296.67,434.36 C297.99,432.33 299.24,427.05 299.24,424.43 C299.22,422.44 298.04,417.48 296.33,414.66 C294.76,412.09 291.88,409.97 290.68,409.49 C289.23,408.94 286.44,408.65 284.27,409.14 C283.54,409.32 280.37,411.39 279.42,412.02" fill="none" stroke="rgb(98, 73, 57)" stroke-width="12.00" stroke-opacity="1.00" stroke-linejoin="round"/>
<path d="M317.57,419.11 C317.57,419.11 317.78,419.95 317.78,419.95 C318.75,420.74 324.51,420.80 326.12,420.80 C335.63,420.83 344.87,419.89 353.76,417.32 C364.11,414.29 383.94,404.61 390.25,400.95 C390.51,400.80 390.92,400.55 391.47,400.21" fill="none" stroke="rgb(98, 73, 57)" stroke-width="12.00" stroke-opacity="1.00" stroke-linejoin="round"/>
<path d="M424.53,355.42 C424.53,355.42 424.72,355.42 424.72,355.42 C423.35,355.44 421.44,355.75 418.76,356.75 C414.73,358.27 405.44,364.81 402.09,368.39 C398.59,372.17 394.31,379.45 392.87,383.93 C391.42,388.53 390.34,397.88 390.59,401.80 C390.90,406.15 394.00,413.99 396.34,417.63 C398.79,421.38 405.37,427.04 409.16,429.42 C412.70,431.63 418.31,433.92 421.15,434.51 C424.85,435.24 431.78,435.45 434.90,435.00 C437.60,434.58 443.43,432.25 446.16,430.37 C448.31,428.87 453.49,423.88 455.89,421.06 C458.17,418.34 460.68,414.12 461.77,411.65 C463.48,407.62 464.62,397.11 464.47,392.37 C464.40,390.40 464.00,385.46 463.56,382.70 C463.21,380.63 461.22,375.22 459.48,372.20 C457.92,369.55 454.72,366.20 452.44,364.48 C449.12,362.00 438.16,356.26 434.60,355.22 C431.66,354.37 426.43,353.96 424.51,354.23 C421.62,354.65 413.97,358.87 412.80,359.52" fill="none" stroke="rgb(98, 73, 57)" stroke-width="12.00" stroke-opacity="1.00" stroke-linejoin="round"/>
<path d="M432.91,383.55 C432.91,383.55 432.41,383.36 432.41,383.36 C431.41,383.28 428.19,384.95 426.93,386.73 C425.29,389.11 423.66,395.00 423.66,398.01 C423.89,413.17 446.34,410.06 447.73,399.63 C448.03,397.03 447.19,391.89 446.25,389.78 C445.23,387.61 442.65,384.85 440.69,384.10 C438.86,383.43 433.45,383.28 431.98,383.93 C431.51,384.15 427.70,386.54 427.14,386.90" fill="none" stroke="rgb(98, 73, 57)" stroke-width="12.00" stroke-opacity="1.00" stroke-linejoin="round"/>
<path d="M57.56,315.56 C56.63,315.59 56.10,315.54 54.96,315.30 C52.09,314.64 49.31,312.99 47.09,310.48 C45.33,308.44 41.88,301.73 41.28,299.04 C40.62,295.76 41.41,289.36 42.30,286.78 C43.13,284.48 45.01,280.98 46.38,279.19 C47.49,277.76 51.36,273.94 54.00,272.44 C55.70,271.50 59.31,270.59 61.23,270.62 C64.52,270.72 69.91,273.26 71.13,274.43 C73.70,276.96 76.44,281.86 77.10,283.87 C78.25,287.56 79.04,295.02 78.69,298.09 C78.26,301.39 75.46,306.52 73.03,308.83 C71.05,310.69 66.00,313.80 63.94,314.47 C61.38,315.25 57.67,314.93 54.91,313.64 C54.28,313.34 53.65,313.05 53.02,312.75 C53.02,312.75 52.38,312.45 52.38,312.45" fill="none" stroke="rgb(98, 73, 57)" stroke-width="12.00" stroke-opacity="1.00" stroke-linejoin="round"/>
<path d="M144.69,323.08 C143.89,323.08 143.05,323.05 142.71,322.92 C141.65,322.46 139.55,320.79 136.57,317.82 C134.70,315.92 132.57,312.91 131.53,310.84 C130.42,308.58 129.50,304.25 129.44,301.72 C129.41,299.06 130.65,293.25 132.07,290.84 C133.47,288.53 138.44,283.88 141.07,282.10 C143.74,280.34 148.87,278.55 151.64,278.41 C154.48,278.32 159.72,280.22 161.95,282.28 C164.20,284.41 167.82,290.40 169.00,293.79 C170.03,296.87 170.90,303.86 170.62,306.63 C170.27,309.59 167.89,314.77 165.83,316.73 C164.00,318.40 158.42,321.23 155.82,322.04 C153.30,322.80 148.00,322.93 146.38,322.26 C145.98,322.08 141.50,318.64 140.54,317.89" fill="none" stroke="rgb(98, 73, 57)" stroke-width="12.00" stroke-opacity="1.00" stroke-linejoin="round"/>
<path d="M75.97,287.56 C75.97,287.56 75.84,287.30 75.84,287.30 C75.84,287.30 75.71,286.81 75.71,286.81 C75.71,286.81 74.45,302.36 74.45,302.36 C74.45,302.36 73.33,281.02 73.33,281.02 C72.40,281.59 71.50,298.20 71.18,305.50 C71.10,307.57 71.05,307.98 71.05,307.98 C70.80,292.05 68.94,278.32 68.65,277.72 C66.84,277.79 66.09,303.95 66.03,306.53 C64.11,296.27 64.53,277.50 64.55,275.78 C64.55,275.78 61.69,308.38 61.69,308.38 C61.69,308.38 60.05,274.18 60.05,274.18 C57.94,282.97 56.74,310.66 56.47,310.08 C54.79,300.97 55.15,281.22 55.23,278.07 C55.23,278.07 52.61,309.16 52.61,309.16 C50.92,308.71 51.26,280.65 51.26,280.65 C51.26,280.65 48.69,304.76 48.69,304.76 C48.69,304.76 47.19,286.59 47.19,286.59 C45.75,287.70 44.47,299.44 44.44,301.33 C44.44,301.33 45.64,297.93 45.64,297.93" fill="none" stroke="rgb(98, 73, 57)" stroke-width="12.00" stroke-opacity="1.00" stroke-linejoin="round"/>
<path d="M135.61,290.15 C135.61,290.15 135.61,289.89 135.61,289.89 C135.61,289.89 133.81,309.86 133.81,309.86 C134.51,294.29 137.48,286.92 138.35,285.23 C138.35,285.23 138.31,315.02 138.31,315.02 C138.48,313.45 139.16,297.55 140.32,292.58 C140.74,290.85 142.05,286.51 142.59,285.23 C142.59,285.23 142.17,317.62 142.17,317.62 C142.47,310.62 143.19,296.87 144.25,291.02 C144.98,287.07 146.21,283.44 146.44,283.08 C147.61,285.95 146.52,314.65 146.63,318.26 C146.63,318.26 147.30,301.62 148.25,295.12 C149.32,288.00 150.60,284.47 150.95,283.73 C150.95,283.73 151.67,318.44 151.67,318.44 C151.71,311.79 151.90,297.42 152.74,291.96 C153.23,288.88 154.57,284.40 154.92,283.28 C156.03,286.12 156.42,287.62 156.47,289.78 C156.66,294.54 157.04,314.97 157.61,318.70 C158.02,317.18 158.79,298.76 159.85,292.06 C160.32,289.12 160.74,287.76 161.00,287.06 C161.00,287.06 162.39,311.91 162.39,311.91 C162.39,311.91 164.22,292.14 164.22,292.14 C164.22,292.14 165.25,312.00 165.25,312.00 C165.25,312.00 165.43,309.34 165.43,309.34" fill="none" stroke="rgb(98, 73, 57)" stroke-width="12.00" stroke-opacity="1.00" stroke-linejoin="round"/>
<path d="M80.96,165.42 C72.49,177.42 48.59,203.50 34.90,232.62 C32.10,238.57 27.49,250.03 25.35,257.62 C20.76,274.93 16.25,294.80 14.11,311.61 C11.22,339.54 16.77,383.43 25.63,401.31" fill="none" stroke="rgb(98, 73, 57)" stroke-width="12.00" stroke-opacity="1.00" stroke-linejoin="round"/>
<path d="M23.35,396.54 C23.35,396.54 26.26,400.17 26.26,400.17" fill="none" stroke="rgb(98, 73, 57)" stroke-width="12.00" stroke-opacity="1.00" stroke-linejoin="round"/>
<path d="M21.09,392.75 C21.09,392.75 27.06,401.53 27.06,401.53 C32.72,408.89 49.98,417.37 60.61,418.89 C66.39,419.70 81.37,418.65 84.25,419.11 C85.49,419.32 86.38,419.52 86.91,419.71 C87.20,419.82 87.49,420.01 87.78,420.28" fill="none" stroke="rgb(98, 73, 57)" stroke-width="12.00" stroke-opacity="1.00" stroke-linejoin="round"/>
<path d="M78.41,417.42 C79.40,417.72 84.89,419.25 87.13,419.78 C89.22,420.37 102.70,425.93 107.43,427.27 C163.42,443.14 192.58,439.91 206.77,435.18 C213.37,432.95 223.42,427.28 229.42,425.75 C230.44,425.50 233.31,424.80 233.31,424.80 C233.31,424.80 233.88,424.62 233.88,424.62" fill="none" stroke="rgb(98, 73, 57)" stroke-width="12.00" stroke-opacity="1.00" stroke-linejoin="round"/>
<path d="M61.20,419.92 C60.59,421.18 68.89,433.48 72.46,436.65 C75.79,439.55 84.57,443.77 91.79,446.17 C94.58,447.07 99.79,447.34 101.93,447.26 C104.80,447.14 109.98,445.98 112.37,445.07 C115.95,443.68 124.32,436.68 125.14,435.33 C125.29,435.07 125.53,434.56 125.86,433.80" fill="none" stroke="rgb(98, 73, 57)" stroke-width="12.00" stroke-opacity="1.00" stroke-linejoin="round"/>
<path d="M246.29,103.14 C245.69,103.36 207.48,106.94 197.52,109.06 C191.84,110.28 175.56,114.82 171.58,116.30 C162.54,119.76 149.27,125.84 146.08,127.50 C129.02,136.47 66.15,177.27 50.07,204.63" fill="none" stroke="rgb(98, 73, 57)" stroke-width="12.00" stroke-opacity="1.00" stroke-linejoin="round"/>
<path d="M100.74,155.64 C94.49,158.41 76.32,173.67 73.73,176.71" fill="none" stroke="rgb(98, 73, 57)" stroke-width="12.00" stroke-opacity="1.00" stroke-linejoin="round"/>
<path d="M108.64,149.98 C103.71,152.27 75.57,173.08 73.76,176.12" fill="none" stroke="rgb(98, 73, 57)" stroke-width="12.00" stroke-opacity="1.00" stroke-linejoin="round"/>
<path d="M425.57,185.76 C425.14,185.51 397.01,145.13 371.19,131.31 C365.76,128.40 355.10,123.50 348.22,121.10 C337.92,117.59 312.79,111.04 298.04,108.42 C294.82,107.91 290.94,107.40 286.69,106.92 C284.23,106.64 281.65,106.37 278.99,106.11 C267.31,104.98 254.25,104.11 244.38,103.86 C233.05,103.54 214.65,105.30 208.66,106.69 C205.76,107.38 202.17,108.22 201.48,108.38" fill="none" stroke="rgb(98, 73, 57)" stroke-width="12.00" stroke-opacity="1.00" stroke-linejoin="round"/>
<path d="M494.59,338.68 C494.59,338.68 494.69,339.08 494.69,339.08 C494.69,339.08 494.71,339.16 494.71,339.16 C494.47,338.29 494.28,337.28 494.17,336.08 C493.85,332.48 490.78,313.42 489.16,306.31 C485.89,292.83 477.40,271.55 470.82,258.12 C462.33,241.73 449.31,220.38 440.80,206.57 C421.34,175.89 402.83,152.44 392.80,147.33" fill="none" stroke="rgb(98, 73, 57)" stroke-width="12.00" stroke-opacity="1.00" stroke-linejoin="round"/>
<path d="M469.17,397.48 C470.24,397.65 472.18,398.15 473.46,398.04 C474.20,397.96 480.83,394.83 481.61,394.37 C484.82,392.46 487.79,388.97 488.89,387.10 C491.58,382.49 494.10,372.73 494.71,365.40 C494.91,362.95 494.97,346.34 494.65,337.41 C494.37,331.03 492.59,318.01 491.79,312.51" fill="none" stroke="rgb(98, 73, 57)" stroke-width="12.00" stroke-opacity="1.00" stroke-linejoin="round"/>
<path d="M467.65,401.88 C469.08,401.60 473.77,398.84 474.16,398.77 C474.16,398.77 474.62,398.71 475.27,398.65" fill="none" stroke="rgb(98, 73, 57)" stroke-width="12.00" stroke-opacity="1.00" stroke-linejoin="round"/>
</g>
</svg>
